# xmcd
#
# Track frame offsets:
#	150
#	15529
#	25493
#	42150
#	54052
#	68000
#	83502
#	91078
#	107032
#	132026
#	145418
#	156612
#	167465
#	193862
#	210744
#
# Disc length: 2935 seconds
#
# Revision: 1
# Processed by: cddbd v1.5.1PL0 Copyright (c) Steve Scherf et al.
# Submitted via: audiograbber 1.83.01
#
DISCID=bf0b750f
DTITLE=Vabank Unit - Tajemstvi
DYEAR=1996
DGENRE=Bluegrass
TTITLE0=Tajemstvi
TTITLE1=Strach
TTITLE2=Vzdycky jsi touzil plout
TTITLE3=V houpaci siti
TTITLE4=Obzorem padi divokej kun
TTITLE5=Bilej dum
TTITLE6=Je to jak sen
TTITLE7=Letni snih
TTITLE8=V dalce lampa sviti
TTITLE9=Prisahej 
TTITLE10=Tvych slibu milionar
TTITLE11=Vabank hrat
TTITLE12=Nove rano
TTITLE13=Moc rad se toulam
TTITLE14=Za Tebou jdou
EXTD=
EXTT0=
EXTT1=
EXTT2=
EXTT3=
EXTT4=
EXTT5=
EXTT6=
EXTT7=
EXTT8=
EXTT9=
EXTT10=
EXTT11=
EXTT12=
EXTT13=
EXTT14=
PLAYORDER=
